<svg xmlns="http://www.w3.org/2000/svg" version="1.1" xmlns:xlink="http://www.w3.org/1999/xlink" xmlns:svgjs="http://svgjs.dev/svgjs" width="1440" height="560" preserveAspectRatio="none" viewBox="0 0 1440 560"><g mask="url(&quot;#SvgjsMask1066&quot;)" fill="none"><rect width="1440" height="560" x="0" y="0" fill="url(&quot;#SvgjsLinearGradient1067&quot;)"></rect><path d="M1440 0L1341.07 0L1440 224.45z" fill="rgba(255, 255, 255, .1)"></path><path d="M1341.07 0L1440 224.45L1440 271.93L904.9599999999999 0z" fill="rgba(255, 255, 255, .075)"></path><path d="M904.96 0L1440 271.93L1440 341.98L797.8000000000001 0z" fill="rgba(255, 255, 255, .05)"></path><path d="M797.8000000000001 0L1440 341.98L1440 353.17L747.1600000000001 0z" fill="rgba(255, 255, 255, .025)"></path><path d="M0 560L234.8 560L0 517.29z" fill="rgba(0, 0, 0, .1)"></path><path d="M0 517.29L234.8 560L617.05 560L0 450.06999999999994z" fill="rgba(0, 0, 0, .075)"></path><path d="M0 450.07L617.05 560L1038.54 560L0 237.68z" fill="rgba(0, 0, 0, .05)"></path><path d="M0 237.68L1038.54 560L1072.58 560L0 221.19z" fill="rgba(0, 0, 0, .025)"></path></g><defs><mask id="SvgjsMask1066"><rect width="1440" height="560" fill="#ffffff"></rect></mask><linearGradient x1="15.28%" y1="-39.29%" x2="84.72%" y2="139.29%" gradientUnits="userSpaceOnUse" id="SvgjsLinearGradient1067"><stop stop-color="#0e2a47" offset="0"></stop><stop stop-color="rgba(0, 69, 158, 0.63)" offset="0.39"></stop><stop stop-color="rgba(0, 69, 158, 0.63)" offset="0.51"></stop><stop stop-color="rgba(0, 69, 158, 0.63)" offset="0.52"></stop><stop stop-color="rgba(0, 69, 158, 0.63)" offset="0.54"></stop><stop stop-color="rgba(0, 69, 158, 0.63)" offset="1"></stop></linearGradient></defs></svg>