<svg id="visual" viewBox="0 0 900 600" width="900" height="600" xmlns="http://www.w3.org/2000/svg" xmlns:xlink="http://www.w3.org/1999/xlink" version="1.1"><rect x="0" y="0" width="900" height="600" fill="#001220"></rect><path d="M0 461L21.5 453.3C43 445.7 86 430.3 128.8 425.8C171.7 421.3 214.3 427.7 257.2 432.3C300 437 343 440 385.8 443C428.7 446 471.3 449 514.2 445.8C557 442.7 600 433.3 642.8 435.3C685.7 437.3 728.3 450.7 771.2 449.8C814 449 857 434 878.5 426.5L900 419L900 601L878.5 601C857 601 814 601 771.2 601C728.3 601 685.7 601 642.8 601C600 601 557 601 514.2 601C471.3 601 428.7 601 385.8 601C343 601 300 601 257.2 601C214.3 601 171.7 601 128.8 601C86 601 43 601 21.5 601L0 601Z" fill="#c62368"></path><path d="M0 495L21.5 496.2C43 497.3 86 499.7 128.8 499.8C171.7 500 214.3 498 257.2 499.5C300 501 343 506 385.8 501.3C428.7 496.7 471.3 482.3 514.2 477.7C557 473 600 478 642.8 479C685.7 480 728.3 477 771.2 474.3C814 471.7 857 469.3 878.5 468.2L900 467L900 601L878.5 601C857 601 814 601 771.2 601C728.3 601 685.7 601 642.8 601C600 601 557 601 514.2 601C471.3 601 428.7 601 385.8 601C343 601 300 601 257.2 601C214.3 601 171.7 601 128.8 601C86 601 43 601 21.5 601L0 601Z" fill="#e34c67"></path><path d="M0 547L21.5 550C43 553 86 559 128.8 557C171.7 555 214.3 545 257.2 537C300 529 343 523 385.8 522.7C428.7 522.3 471.3 527.7 514.2 528.7C557 529.7 600 526.3 642.8 523C685.7 519.7 728.3 516.3 771.2 516C814 515.7 857 518.3 878.5 519.7L900 521L900 601L878.5 601C857 601 814 601 771.2 601C728.3 601 685.7 601 642.8 601C600 601 557 601 514.2 601C471.3 601 428.7 601 385.8 601C343 601 300 601 257.2 601C214.3 601 171.7 601 128.8 601C86 601 43 601 21.5 601L0 601Z" fill="#fa7268"></path></svg>